# xmcd
#
# Track frame offsets:
#	150
#	13293
#	26510
#	39925
#	53445
#	66073
#	77568
#	87998
#	100473
#	114285
#	128365
#	141775
#	154958
#	168460
#	182685
#
# Disc length: 2620 seconds
#
# Revision: 0
# Processed by: cddbd v1.5PL3 Copyright (c) Steve Scherf et al.
# Submitted via: dBpowerAMP V4.0
#
DISCID=b50a3a0f
DTITLE=BRONCO - Lo Mejor de Bronco
DYEAR=1900
DGENRE=Latin
TTITLE0=Grande de Caderas
TTITLE1=Pa Que Me Sirven Las Parrandas
TTITLE2=Besos Callejeros
TTITLE3=La Descuidada
TTITLE4=Yo Vivo Mi Vida
TTITLE5=Amor y Odio
TTITLE6=Escándalo
TTITLE7=Mi Castigo
TTITLE8=Bailando Jalao
TTITLE9=Compadre del Alma
TTITLE10=Mi Ultima Serenata
TTITLE11=Vagabundo
TTITLE12=Mis Mejores Años
TTITLE13=Y de Corazón
TTITLE14=La Mula
EXTD=
EXTT0=
EXTT1=
EXTT2=
EXTT3=
EXTT4=
EXTT5=
EXTT6=
EXTT7=
EXTT8=
EXTT9=
EXTT10=
EXTT11=
EXTT12=
EXTT13=
EXTT14=
PLAYORDER=
